<?xml version="1.0" encoding="UTF-8" standalone="no"?>
<!DOCTYPE svg PUBLIC "-//W3C//DTD SVG 1.1//EN" "http://www.w3.org/Graphics/SVG/1.1/DTD/svg11.dtd">
<svg width="100%" height="100%" viewBox="0 0 24 24" version="1.1" xmlns="http://www.w3.org/2000/svg" xmlns:xlink="http://www.w3.org/1999/xlink" xml:space="preserve" xmlns:serif="http://www.serif.com/" style="fill-rule:evenodd;clip-rule:evenodd;stroke-linecap:round;stroke-linejoin:round;">
    <path d="M15,22L15,18C15.139,16.748 14.78,15.49 14,14.5C17,14.5 20,12.5 20,9C20.08,7.75 19.73,6.52 19,5.5C19.28,4.35 19.28,3.15 19,2C19,2 18,2 16,3.5C13.36,3 10.64,3 8,3.5C6,2 5,2 5,2C4.7,3.15 4.7,4.35 5,5.5C4.272,6.516 3.918,7.753 4,9C4,12.5 7,14.5 10,14.5C9.61,14.99 9.32,15.55 9.15,16.15C8.98,16.75 8.93,17.38 9,18L9,22" style="fill:none;fill-rule:nonzero;stroke:white;stroke-width:2px;"/>
    <path d="M9,18C4.49,20 4,16 2,16" style="fill:none;fill-rule:nonzero;stroke:white;stroke-width:2px;"/>
</svg>
