<svg clip-rule="evenodd" fill-rule="evenodd" viewBox="0 0 475 487" xmlns="http://www.w3.org/2000/svg"><g transform="matrix(.993721 0 0 1.01884 -273.632 -291.359)"><path d="m275.361 285.972h477.767v477.767h-477.767z" fill="none"/><g transform="matrix(1.00632 0 0 .981511 .635668 6.24155)"><circle cx="510.26" cy="528.84" fill="#f2fdf3" r="234.899"/><path d="m677.92 369.33c-8.007 3.4-15.813 4.243-23.42 2.53-2.213-.493-4-.687-5.36-.58-.34.027-.623.163-.85.41-5.713 6.08-11.06 12.453-16.04 19.12-5.927 7.933-8.91 11.923-8.95 11.97-4.5 5.84-9.303 12.17-14.41 18.99-.033.043-.05.096-.05.15 0 .134.107.245.24.25 5.467.067 10.923.067 16.37 0 6.41-.08 11.38 3.25 12.72 9.42 1.347 6.227 2.65 13.103 3.91 20.63 2.96 17.73 6.48 35.71 9.25 53.64 2.447 15.827 5.467 33.873 9.06 54.14 3.6 20.25 5.35 41.7 1.34 61.03-4.91 23.6-16.08 45.48-30.94 64.42-3.94 5.01-8.93 9.43-13.64 13.74-13.88 12.727-29.24 22.203-46.08 28.43-9.333 3.453-17.383 5.977-24.15 7.57-11.34 2.673-23.26 4.117-35.76 4.33-31.55.54-62.29-7.76-88.85-24.81-13.36-8.567-25.16-18.777-35.4-30.63-13.04-15.093-22.513-32.9-28.42-53.42-5.13-17.82-5.29-37.8-2.56-56.67 3.24-22.44 6.14-41.427 8.7-56.96.627-3.84 1.38-8.043 2.26-12.61.005-.027.008-.055.008-.083 0-.233-.177-.43-.408-.457-9.833-1.293-19.203-4.027-28.11-8.2-19.73-9.23-35.58-28.63-42.15-49.81-.94-3.04-1.847-6.097-2.72-9.17-1.06-5.56-1.54-12.123-1.44-19.69.247-18.147 5.593-34.347 16.04-48.6 7.29-9.95 17.77-19.44 28.99-25.21 15.127-7.787 31.497-10.88 49.11-9.28 10.133 1.393 19.457 4.273 27.97 8.64 29.67 15.24 47.39 45.96 46.3 79.36v.005c-.003.274.216.502.485.505h.005c32.293.227 66.97.173 104.03-.16 3.113-.027 6.22-.04 9.32-.04.471 0 .919-.2 1.23-.55 2.487-2.773 4.907-5.647 7.26-8.62 12.507-15.813 24.73-31.67 36.67-47.57 1.807-2.4 4.59-5.647 8.35-9.74.233-.253.253-.523.06-.81-6.907-10.053-9.423-21.217-7.55-33.49 2.75-17.81 16.06-31.7 33.93-34.74 22.29-3.79 42.41 7.19 49.4 29.01 4.51 14.08 2.51 28.82-7.22 40.23-5.193 6.093-11.37 10.553-18.53 13.38z" fill="#122e38" fill-rule="nonzero"/><path d="m432.59 399.51c-.453 4.347-2.713 7.127-6.78 8.34-1.96.58-4.98 1.127-9.06 1.64-6.013.76-11.197 1.033-15.55.82" fill="none" stroke="#76ba24" stroke-width="2"/><path d="m371.15 463.82c-4.307-.427-7.11-.54-8.41-.34-7.013 1.107-12.913 1.293-17.7.56" fill="none" stroke="#76ba24" stroke-width="2"/><path d="m511.78 503.79c-2.007-3.353-4.66-6.133-7.96-8.34-4.48-2.987-9.42-4.337-14.82-4.05-8.247.44-15.443 3.36-21.59 8.76-1.347 1.18-3.38 3.403-6.1 6.67" fill="none" stroke="#e8f4ea" stroke-width="2"/><path d="m461.31 506.83.05-1.78c.007-.36-.143-.633-.45-.82-.527-.32-.693-.783-.5-1.39.54-1.72 1.283-3.393 2.23-5.02 1.513-2.607 2.543-5.61 3.09-9.01.55-3.39.41-6.62 1.76-9.82.217-.519.015-1.125-.47-1.41-3.273-1.973-6.833-3.763-10.68-5.37-4.34-1.807-8.697-3.99-13.07-6.55-3.4-1.99-8.32-4.26-11.18.12-2.71 4.15-4.06 9.16-6.19 13.72-2.673 5.707-4.6 11.623-5.78 17.75-.66 3.4-.487 6.17.52 8.31" fill="none" stroke="#f9fef9" stroke-width="2"/><path d="m420.64 505.56c-.92 1.1-2.97 2.463-6.15 4.09-3.473 1.78-7.527 5.25-12.16 10.41-1.507 1.68-2.073 3.35-1.7 5.01" fill="none" stroke="#e8f4ea" stroke-width="2"/><path d="m461.31 506.83c-1.36.98-2.233 2.23-2.62 3.75-.132.528-.61.902-1.155.902-.253 0-.501-.082-.705-.232-11.16-8.307-23.223-10.203-36.19-5.69" fill="none" stroke="#eff5f0" stroke-width="2"/><path d="m625.73 530.98c-21.39-6.41-43.78 1.86-54.97 21.3-3.13 5.44-6.57 11.53-10.84 15.63-5.013 4.807-11.043 7.203-18.09 7.19" fill="none" stroke="#76ba24" stroke-width="2"/><path d="m631.46 546.86c-2.9-.713-5.393-1.367-7.48-1.96-7.213-2.06-14.443-2.123-21.69-.19-13.627 3.633-22.373 12.233-26.24 25.8-.82 2.873-1.633 6.767-2.44 11.68" fill="none" stroke="#91c48e" stroke-width="2"/><path d="m433.98 541.26c-.113.327-.143.677-.09 1.05.053.34.253.517.6.53 1.653.06 3.24.287 4.76.68.513.14.503.223-.03.25-3.98.207-8.05 1.103-12.21 2.69-4.707 1.793-8.547 3.653-11.52 5.58-14.75 9.55-19.94 24.18-18.18 41.29" fill="none" stroke="#76ba24" stroke-width="2"/><path d="m397.31 593.33-12.57 6.12" fill="none" stroke="#a1ce9c" stroke-width="2"/><path d="m384.74 599.45-4.73 1.93" fill="none" stroke="#91c48e" stroke-width="2"/><path d="m460.74 569.45c-3.3-2.627-7.377-4.537-12.23-5.73-1.353-.327-2.757-.503-4.21-.53-6.98-.127-13.543 1.713-19.69 5.52-7.22 4.47-12.02 13.96-14.58 22.05-.218.697-.874 1.169-1.6 1.15-3.833-.08-7.54.393-11.12 1.42" fill="none" stroke="#d4ec86" stroke-width="2"/><path d="m416.65 625.06c-1.647.36-1.363-.62.85-2.94.349-.375.41-.939.15-1.38-7.047-11.807-17.56-18.423-31.54-19.85-1.02-.107-1.477-.587-1.37-1.44" fill="none" stroke="#eff5f0" stroke-width="2"/><path d="m463.72 609.23-.08.52c-.004.024-.006.049-.006.073 0 .258.212.47.47.47.112 0 .221-.04.306-.113 4.927-4.147 9.727-7.27 14.4-9.37 1.08-.487 2.227-.783 3.44-.89 5.593-.5 11.013-.487 16.26.04 7.63.77 15.3 3.96 23.38 4.67.133.013.217-.043.25-.17.027-.113.01-.223-.05-.33-.067-.113-.163-.2-.29-.26-4.607-2.047-9.183-4.287-13.73-6.72" fill="none" stroke="#eff5f0" stroke-width="2"/><path d="m636.51 610.66c-2.733-1.22-5.483-2.027-8.25-2.42-.467-.06-.8.037-1 .29" fill="none" stroke="#9bcd97" stroke-width="2"/><path d="m627.26 608.53c.067-.167-.187-.28-.76-.34-9.71-.99-17.99.21-27.21 2.41-3.42.81-6.14 3-9.34 4.38-5.07 2.2-8.96 4.28-13.31 8.36-5.62 5.267-9.977 10.923-13.07 16.97-1.953 3.82-3.72 7.717-5.3 11.69-.1.253-.497.197-1.19-.17" fill="none" stroke="#ceeb80" stroke-width="2"/><path d="m557.08 651.83 3.13-13.85" fill="none" stroke="#9bcd97" stroke-width="2"/><path d="m627.26 608.53c-.133.12-.09.347.13.68.193.3.29.623.29.97-.14 10.57.42 19.84-5.51 29.24-1.747 2.773-5.357 6.767-10.83 11.98" fill="none" stroke="#76ba24" stroke-width="2"/><path d="m597.01 665.78c-.147.653-.83.82-2.05.5-.927-.24-1.577-.383-1.95-.43-7.22-.847-13.977-1.183-20.27-1.01-6.22.17-11.91 2.15-17.69 4.23-.187.067-.377.073-.57.02-.22-.06-.393-.193-.52-.4-.147-.247-.103-.46.13-.64 1.08-.813 1.513-2.08 1.3-3.8-.527-4.413.037-8.553 1.69-12.42" fill="none" stroke="#76ba24" stroke-width="2"/><path d="m520.03 651.88c-11.307.313-20.1 5.087-26.38 14.32-.232.335-.692.429-1.03.21-6.15-4.05-14.29-5.04-21.48-4.06-4.853.667-9.313 2.433-13.38 5.3-6.113 4.307-10.267 10.337-12.46 18.09" fill="none" stroke="#d4ec86" stroke-width="2"/><path d="m445.3 685.74c-.14-8.007-.04-13.01.3-15.01 2.22-13 11.1-23.29 22.88-28.77.3-.14.503-.363.61-.67.16-.46.493-1 1-1.62" fill="none" stroke="#76ba24" stroke-width="2"/><path d="m528.57 686.09c-.627.467-1.127.127-1.5-1.02-.167-.52-.247-1.057-.24-1.61.067-4.027.047-7.923-.06-11.69-.02-.727.117-1.433.41-2.12.92-2.15.82-4.77-2.08-5.21-6.64-1.01-12.92.09-17.86 4.71-5.34 4.993-8.89 10.433-10.65 16.32-.8 2.66-.55 5.32-1.25 7.96-.093.333-.357.46-.79.38-.227-.044-.42-.192-.52-.4-2.753-5.827-7.237-10.39-13.45-13.69-5.38-2.867-11.097-3.61-17.15-2.23-6.38 1.453-11.713 4.997-16 10.63-.53.69-.88 1.73-1.08 2.58-.093.42-.327.517-.7.29-.227-.14-.427-.38-.6-.72" fill="none" stroke="#eff5f0" stroke-width="2"/><path d="m445.3 685.74-.25 4.53" fill="none" stroke="#a1ce9c" stroke-width="2"/><path d="m445.05 690.27.08 8.65" fill="none" stroke="#91c48e" stroke-width="2"/><circle cx="451.11" cy="334.68" fill="#122e38" r="13.01"/><g fill-rule="nonzero"><g fill="#a9d80d"><path d="m341.1 369.17c7.26-5.19 16.52-9.19 25.45-9.8.313-.02.47.123.47.43l.03 36.45c.007.573-.207.67-.64.29-2.033-1.793-4.067-3.743-6.1-5.85-6.173-6.407-12.603-13.313-19.29-20.72-.007-.008-.014-.016-.021-.025-.187-.23-.154-.57.072-.753.009-.008.019-.015.029-.022z"/><path d="m390.99 360.34c7.58 2.16 14.483 5.473 20.71 9.94.019.013.036.027.053.043.169.164.171.442.003.615-.014.015-.03.029-.046.042-1.02.78-2.023 1.687-3.01 2.72-7.353 7.727-14.763 15.557-22.23 23.49-.713.753-1.063.613-1.05-.42l.48-36.97c0-.006 0-.013.001-.019.015-.219.198-.387.406-.373.008 0 .015.001.023.002 1.547.173 3.1.483 4.66.93z"/><path d="m317.65 408.62c1.25-8.43 4.56-16.52 9.73-23.37.087-.115.223-.183.367-.183.121 0 .237.048.323.133l23.24 23.42c.068.069.107.163.107.26 0 .202-.165.368-.367.37h-32.85c-.011 0-.023-.001-.034-.001-.307-.022-.541-.287-.52-.588.001-.014.002-.027.004-.041z"/><path d="m432.59 399.51c-.453 4.347-2.713 7.127-6.78 8.34-1.96.58-4.98 1.127-9.06 1.64-6.013.76-11.197 1.033-15.55.82l24.4-24.33c.193-.187.363-.167.51.06 2.707 4.253 4.867 8.743 6.48 13.47z"/></g><path d="m432.59 399.51c2.173 6.98 3.02 14.21 2.54 21.69-.027.353-.217.533-.57.54-12.78.047-25.25.027-37.41-.06-1.433-.013-3.077-.16-4.93-.44-.241-.034-.422-.242-.422-.485 0-.125.047-.244.132-.335l9.27-10.11c4.353.213 9.537-.06 15.55-.82 4.08-.513 7.1-1.06 9.06-1.64 4.067-1.213 6.327-3.993 6.78-8.34z" fill="#439c3a"/><path d="m324.08 447.43c-3.48-6.053-5.68-12.23-6.6-18.53-.002-.017-.003-.033-.003-.05 0-.203.167-.37.37-.37h.003l33.62.01c.673 0 .763.227.27.68-8.273 7.587-16.363 15.393-24.27 23.42-.018.019-.038.037-.06.052-.195.142-.475.094-.62-.106-.015-.021-.029-.043-.04-.066-.833-1.713-1.723-3.393-2.67-5.04z" fill="#a9d80d"/><path d="m371.15 463.82c-4.307-.427-7.11-.54-8.41-.34-7.013 1.107-12.913 1.293-17.7.56l25.84-26.18c.327-.327.487-.26.48.2z" fill="#a9d80d"/><path d="m511.78 503.79c-2.007-3.353-4.66-6.133-7.96-8.34-4.48-2.987-9.42-4.337-14.82-4.05-8.247.44-15.443 3.36-21.59 8.76-1.347 1.18-3.38 3.403-6.1 6.67l.05-1.78c.007-.36-.143-.633-.45-.82-.527-.32-.693-.783-.5-1.39.54-1.72 1.283-3.393 2.23-5.02 1.513-2.607 2.543-5.61 3.09-9.01.55-3.39.41-6.62 1.76-9.82.217-.519.015-1.125-.47-1.41-3.273-1.973-6.833-3.763-10.68-5.37-4.34-1.807-8.697-3.99-13.07-6.55-3.4-1.99-8.32-4.26-11.18.12-2.71 4.15-4.06 9.16-6.19 13.72-2.673 5.707-4.6 11.623-5.78 17.75-.66 3.4-.487 6.17.52 8.31-.92 1.1-2.97 2.463-6.15 4.09-3.473 1.78-7.527 5.25-12.16 10.41-1.507 1.68-2.073 3.35-1.7 5.01l-11.85 7.95c-.587.393-.817.243-.69-.45.77-4.09 1.78-8.39 2.39-12.45 3.62-24.24 7.38-48.543 11.28-72.91.053-.32.217-.48.49-.48l152.88.1c.426.003.775.354.775.78 0 .174-.058.343-.165.48z" fill="#f2fdf3"/><path d="m584.81 452.07c1.26-1.56 2.437-3.09 3.53-4.59.332-.464.865-.74 1.43-.74h23.74c.334 0 .622.241.68.57 2.307 13.927 4.567 27.66 6.78 41.2.44 2.687.99 5.22 1.65 7.6.213.753 0 .907-.64.46-13.67-9.57-32.76-10.99-49.09-8.16-6.687 1.16-13.24 3.59-19.66 7.29-1.167.673-1.35.467-.55-.62 6.59-8.91 13.52-17.71 19.81-26.66 4.073-5.78 8.18-11.23 12.32-16.35z" fill="#f2fdf3"/><path d="m461.31 506.83c-1.36.98-2.233 2.23-2.62 3.75-.132.528-.61.902-1.155.902-.253 0-.501-.082-.705-.232-11.16-8.307-23.223-10.203-36.19-5.69-1.007-2.14-1.18-4.91-.52-8.31 1.18-6.127 3.107-12.043 5.78-17.75 2.13-4.56 3.48-9.57 6.19-13.72 2.86-4.38 7.78-2.11 11.18-.12 4.373 2.56 8.73 4.743 13.07 6.55 3.847 1.607 7.407 3.397 10.68 5.37.485.285.687.891.47 1.41-1.35 3.2-1.21 6.43-1.76 9.82-.547 3.4-1.577 6.403-3.09 9.01-.947 1.627-1.69 3.3-2.23 5.02-.193.607-.027 1.07.5 1.39.307.187.457.46.45.82z" fill="#fffffe"/><path d="m371.15 463.82-.57 14.55c-.013.327-.183.483-.51.47-10.773-.633-20.57-3.977-29.39-10.03-.32-.22-.337-.46-.05-.72l4.41-4.05c4.787.733 10.687.547 17.7-.56 1.3-.2 4.103-.087 8.41.34z" fill="#439c3a"/><path d="m511.78 503.79-25.43 32.41c-.233.3-.48.31-.74.03-3.933-4.253-7.783-7.447-11.55-9.58-8.22-4.66-16.243-7.65-24.07-8.97-6.78-1.14-14.447-1.273-23-.4-9.293.953-18.08 3.55-26.36 7.79-.373-1.66.193-3.33 1.7-5.01 4.633-5.16 8.687-8.63 12.16-10.41 3.18-1.627 5.23-2.99 6.15-4.09 12.967-4.513 25.03-2.617 36.19 5.69.204.15.452.232.705.232.545 0 1.023-.374 1.155-.902.387-1.52 1.26-2.77 2.62-3.75 2.72-3.267 4.753-5.49 6.1-6.67 6.147-5.4 13.343-8.32 21.59-8.76 5.4-.287 10.34 1.063 14.82 4.05 3.3 2.207 5.953 4.987 7.96 8.34z" fill="#deebe1"/><path d="m625.73 530.98c-21.39-6.41-43.78 1.86-54.97 21.3-3.13 5.44-6.57 11.53-10.84 15.63-5.013 4.807-11.043 7.203-18.09 7.19-4.21-10.65-3.78-22.43.25-32.98 4.173-10.94 11.207-18.98 21.1-24.12 14.4-7.473 29.027-8.343 43.88-2.61 7.58 2.92 13.803 8.117 18.67 15.59z" fill="#a9d80d"/><path d="m625.73 530.98c2.573 4.5 4.483 9.793 5.73 15.88-2.9-.713-5.393-1.367-7.48-1.96-7.213-2.06-14.443-2.123-21.69-.19-13.627 3.633-22.373 12.233-26.24 25.8-.82 2.873-1.633 6.767-2.44 11.68l-.64 7.65c-.025.357-.224.68-.53.86-3.56 2.18-6.943 4.433-10.15 6.76-1.4 1.013-2.637 2.157-3.71 3.43-.209.246-.515.387-.838.387-.304 0-.594-.126-.802-.347-7.187-7.68-12.223-16.29-15.11-25.83 7.047.013 13.077-2.383 18.09-7.19 4.27-4.1 7.71-10.19 10.84-15.63 11.19-19.44 33.58-27.71 54.97-21.3z" fill="#439c3a"/><path d="m433.98 541.26c-.113.327-.143.677-.09 1.05.053.34.253.517.6.53 1.653.06 3.24.287 4.76.68.513.14.503.223-.03.25-3.98.207-8.05 1.103-12.21 2.69-4.707 1.793-8.547 3.653-11.52 5.58-14.75 9.55-19.94 24.18-18.18 41.29l-12.57 6.12-4.73 1.93c-.58-27 12.56-48.77 38.5-57.68 5.247-1.807 10.403-2.62 15.47-2.44z" fill="#439c3a"/><path d="m433.98 541.26c14.613-.633 27.447 3.673 38.5 12.92.196.165.309.409.309.665s-.113.5-.309.665c-1.407 1.187-2.753 2.58-4.04 4.18-2.953 3.66-5.52 6.913-7.7 9.76-3.3-2.627-7.377-4.537-12.23-5.73-1.353-.327-2.757-.503-4.21-.53-6.98-.127-13.543 1.713-19.69 5.52-7.22 4.47-12.02 13.96-14.58 22.05-.218.697-.874 1.169-1.6 1.15-3.833-.08-7.54.393-11.12 1.42-1.76-17.11 3.43-31.74 18.18-41.29 2.973-1.927 6.813-3.787 11.52-5.58 4.16-1.587 8.23-2.483 12.21-2.69.533-.027.543-.11.03-.25-1.52-.393-3.107-.62-4.76-.68-.347-.013-.547-.19-.6-.53-.053-.373-.023-.723.09-1.05z" fill="#a9d80d"/><path d="m631.46 546.86 3.4 17.13c.067.347-.077.52-.43.52-4.027-.02-7.993.003-11.9.07-16.16.3-30.86 5.093-44.1 14.38-1.473 1.033-3.08 2.11-4.82 3.23.807-4.913 1.62-8.807 2.44-11.68 3.867-13.567 12.613-22.167 26.24-25.8 7.247-1.933 14.477-1.87 21.69.19 2.087.593 4.58 1.247 7.48 1.96z" fill="#deebe1"/><path d="m463.72 609.23-.08.52c-.004.024-.006.049-.006.073 0 .258.212.47.47.47.112 0 .221-.04.306-.113 4.927-4.147 9.727-7.27 14.4-9.37 1.08-.487 2.227-.783 3.44-.89 5.593-.5 11.013-.487 16.26.04 7.63.77 15.3 3.96 23.38 4.67.133.013.217-.043.25-.17.027-.113.01-.223-.05-.33-.067-.113-.163-.2-.29-.26-4.607-2.047-9.183-4.287-13.73-6.72.333-.16.503-.377.51-.65.29-10.9-2.22-24.11-8.11-33.78-.193-.327-.17-.637.07-.93l14.48-17.96c.74-.927.993-.81.76.35-1.74 8.693-2.163 17.493-1.27 26.4 1.91 19.17 13.03 37.61 27.97 49.03.24.187.29.417.15.69l-6.92 13.44c-.014.027-.031.052-.049.076-.177.231-.509.278-.735.104-.024-.018-.046-.038-.066-.06-8.84-9.55-19.22-16.04-32.14-18.95-15.62-3.527-31.007-2.223-46.16 3.91-.393.16-.46.073-.2-.26z" fill="#deebe1"/><path d="m460.74 569.45-44.09 55.61c-1.647.36-1.363-.62.85-2.94.349-.375.41-.939.15-1.38-7.047-11.807-17.56-18.423-31.54-19.85-1.02-.107-1.477-.587-1.37-1.44l12.57-6.12c3.58-1.027 7.287-1.5 11.12-1.42.726.019 1.382-.453 1.6-1.15 2.56-8.09 7.36-17.58 14.58-22.05 6.147-3.807 12.71-5.647 19.69-5.52 1.453.027 2.857.203 4.21.53 4.853 1.193 8.93 3.103 12.23 5.73z" fill="#fffffe"/><path d="m508.07 597.15c4.547 2.433 9.123 4.673 13.73 6.72.127.06.223.147.29.26.06.107.077.217.05.33-.033.127-.117.183-.25.17-8.08-.71-15.75-3.9-23.38-4.67-5.247-.527-10.667-.54-16.26-.04-1.213.107-2.36.403-3.44.89-4.673 2.1-9.473 5.223-14.4 9.37-.085.073-.194.113-.306.113-.258 0-.47-.212-.47-.47 0-.024.002-.049.006-.073l.08-.52 18.79-23.86c.051-.064.129-.102.211-.102.119 0 .225.078.259.192l2.45 9.08c.145.519.677.84 1.21.73 7.593-1.593 14.737-.967 21.43 1.88z" fill="#fffffe"/><path d="m636.51 610.66c-2.733-1.22-5.483-2.027-8.25-2.42-.467-.06-.8.037-1 .29.067-.167-.187-.28-.76-.34-9.71-.99-17.99.21-27.21 2.41-3.42.81-6.14 3-9.34 4.38-5.07 2.2-8.96 4.28-13.31 8.36-5.62 5.267-9.977 10.923-13.07 16.97-1.953 3.82-3.72 7.717-5.3 11.69-.1.253-.497.197-1.19-.17l3.13-13.85c1.32-3.06 2.603-5.537 3.85-7.43 5.207-7.913 11.47-14.373 18.79-19.38 5.67-3.87 12.82-7.88 19.4-9.79 11.353-3.307 23.033-3.577 35.04-.81.36.08.513.3.46.66z" fill="#f2fdf3"/><path d="m384.74 599.45c-.107.853.35 1.333 1.37 1.44 13.98 1.427 24.493 8.043 31.54 19.85.26.441.199 1.005-.15 1.38-2.213 2.32-2.497 3.3-.85 2.94-3.79 4.24-7.8 8.93-6.99 15.13.6 4.653 3.023 8.073 7.27 10.26.007.003.013.007.019.011.314.181.425.584.247.893-.005.009-.01.017-.016.026-3.76 6.04-5.36 12.97-6.43 20-.036.233-.238.407-.474.407-.136 0-.265-.057-.356-.157-6.927-7.86-12.823-16.26-17.69-25.2-5.713-10.487-9.467-21.793-11.26-33.92-.66-4.46-.98-8.17-.96-11.13z" fill="#deebe1"/><path d="m627.26 608.53c-.133.12-.09.347.13.68.193.3.29.623.29.97-.14 10.57.42 19.84-5.51 29.24-1.747 2.773-5.357 6.767-10.83 11.98-4.147-4.68-8.377-9.533-12.69-14.56-2.233-2.6-5.03-3.193-8.39-1.78-4.89 2.06-11.28 8.33-8.66 14.15 2.92 6.51 9.93 11.75 15.41 16.57-.147.653-.83.82-2.05.5-.927-.24-1.577-.383-1.95-.43-7.22-.847-13.977-1.183-20.27-1.01-6.22.17-11.91 2.15-17.69 4.23-.187.067-.377.073-.57.02-.22-.06-.393-.193-.52-.4-.147-.247-.103-.46.13-.64 1.08-.813 1.513-2.08 1.3-3.8-.527-4.413.037-8.553 1.69-12.42.693.367 1.09.423 1.19.17 1.58-3.973 3.347-7.87 5.3-11.69 3.093-6.047 7.45-11.703 13.07-16.97 4.35-4.08 8.24-6.16 13.31-8.36 3.2-1.38 5.92-3.57 9.34-4.38 9.22-2.2 17.5-3.4 27.21-2.41.573.06.827.173.76.34z" fill="#a9d80d"/><path d="m636.51 610.66c-1.093 9.753-2.907 17.703-5.44 23.85-3.373 8.2-7.553 15.967-12.54 23.3-.077.109-.202.175-.336.175-.106 0-.208-.042-.284-.115l-6.57-6.47c5.473-5.213 9.083-9.207 10.83-11.98 5.93-9.4 5.37-18.67 5.51-29.24 0-.347-.097-.67-.29-.97-.22-.333-.263-.56-.13-.68.2-.253.533-.35 1-.29 2.767.393 5.517 1.2 8.25 2.42z" fill="#439c3a"/><path d="m520.03 651.88c-11.307.313-20.1 5.087-26.38 14.32-.232.335-.692.429-1.03.21-6.15-4.05-14.29-5.04-21.48-4.06-4.853.667-9.313 2.433-13.38 5.3-6.113 4.307-10.267 10.337-12.46 18.09-.14-8.007-.04-13.01.3-15.01 2.22-13 11.1-23.29 22.88-28.77.3-.14.503-.363.61-.67.16-.46.493-1 1-1.62 14.14-4.007 27.647-2.347 40.52 4.98 3.5 1.993 6.64 4.403 9.42 7.23z" fill="#a9d80d"/><path d="m560.21 637.98-3.13 13.85c-1.653 3.867-2.217 8.007-1.69 12.42.213 1.72-.22 2.987-1.3 3.8-.233.18-.277.393-.13.64.127.207.3.34.52.4.193.053.383.047.57-.02 5.78-2.08 11.47-4.06 17.69-4.23 6.293-.173 13.05.163 20.27 1.01.373.047 1.023.19 1.95.43 1.22.32 1.903.153 2.05-.5l8.07 8.07c.253.247.25.49-.01.73-3.033 2.753-6.14 5.577-9.32 8.47-10.15 9.23-22.2 16.23-35.02 21.66-.001.001-.003.001-.004.002-.286.113-.612-.025-.723-.305-.001-.003-.002-.005-.003-.007-1.24-3.267-2.423-6.473-3.55-9.62-2.473-6.913-3.76-14.24-3.86-21.98-.1-7.473.7-15.153 2.4-23.04 1-4.62 2.74-8.547 5.22-11.78z" fill="#439c3a"/><path d="m470.09 639.67c-.507.62-.84 1.16-1 1.62-.107.307-.31.53-.61.67-11.78 5.48-20.66 15.77-22.88 28.77-.34 2-.44 7.003-.3 15.01l-.25 4.53.08 8.65c-4.64-2.12-8.517-5.043-11.63-8.77-.213-.253-.333-.543-.36-.87-1.12-12.45 2.36-26.05 11.61-34.76 7.24-6.82 15.53-12.97 25.34-14.85z" fill="#439c3a"/><path d="m520.03 651.88 9.33 6.18c.414.27.618.774.51 1.26-1.933 8.94-2.367 17.863-1.3 26.77-.627.467-1.127.127-1.5-1.02-.167-.52-.247-1.057-.24-1.61.067-4.027.047-7.923-.06-11.69-.02-.727.117-1.433.41-2.12.92-2.15.82-4.77-2.08-5.21-6.64-1.01-12.92.09-17.86 4.71-5.34 4.993-8.89 10.433-10.65 16.32-.8 2.66-.55 5.32-1.25 7.96-.093.333-.357.46-.79.38-.227-.044-.42-.192-.52-.4-2.753-5.827-7.237-10.39-13.45-13.69-5.38-2.867-11.097-3.61-17.15-2.23-6.38 1.453-11.713 4.997-16 10.63-.53.69-.88 1.73-1.08 2.58-.093.42-.327.517-.7.29-.227-.14-.427-.38-.6-.72l.25-4.53c2.193-7.753 6.347-13.783 12.46-18.09 4.067-2.867 8.527-4.633 13.38-5.3 7.19-.98 15.33.01 21.48 4.06.338.219.798.125 1.03-.21 6.28-9.233 15.073-14.007 26.38-14.32z" fill="#fffffe"/><path d="m528.57 686.09c.4 1.947.827 3.93 1.28 5.95 1.46 6.5 4.87 12.94 8.22 18.71.287.493.15.797-.41.91-21.01 4.29-43.39 4.04-64.12-1.86-9.793-2.787-19.263-6.413-28.41-10.88l-.08-8.65c.173.34.373.58.6.72.373.227.607.13.7-.29.2-.85.55-1.89 1.08-2.58 4.287-5.633 9.62-9.177 16-10.63 6.053-1.38 11.77-.637 17.15 2.23 6.213 3.3 10.697 7.863 13.45 13.69.1.208.293.356.52.4.433.08.697-.047.79-.38.7-2.64.45-5.3 1.25-7.96 1.76-5.887 5.31-11.327 10.65-16.32 4.94-4.62 11.22-5.72 17.86-4.71 2.9.44 3 3.06 2.08 5.21-.293.687-.43 1.393-.41 2.12.107 3.767.127 7.663.06 11.69-.007.553.073 1.09.24 1.61.373 1.147.873 1.487 1.5 1.02z" fill="#deebe1"/></g></g></g></svg>